<?xml version="1.0" encoding="UTF-8" standalone="no" ?>
<!DOCTYPE svg PUBLIC "-//W3C//DTD SVG 1.1//EN" "http://www.w3.org/Graphics/SVG/1.1/DTD/svg11.dtd">
<svg xmlns="http://www.w3.org/2000/svg" xmlns:xlink="http://www.w3.org/1999/xlink" version="1.1" width="100" height="100" viewBox="0 0 1280 1024" xml:space="preserve">
<desc>Created with Fabric.js 5.3.0</desc>
<defs>
</defs>
<g transform="matrix(1 0 0 1 640 512)" id="background-logo"  >
<rect style="stroke: none; stroke-width: 0; stroke-dasharray: none; stroke-linecap: butt; stroke-dashoffset: 0; stroke-linejoin: miter; stroke-miterlimit: 4; fill: rgb(29,18,15); fill-rule: nonzero; opacity: 1;"  paint-order="stroke"  x="-640" y="-512" rx="0" ry="0" width="1280" height="1024" />
</g>
<g transform="matrix(1.9211538461538462 0 0 1.9211538461538462 640 412.15834203756447)" id="logo-logo"  >
<g style=""  paint-order="stroke"   >
		<g transform="matrix(0.5309957200553014 0 0 0.5309957200553014 -1.0434416968010964 18.480502587341306)"  >
<linearGradient id="SVGID_689407" gradientUnits="userSpaceOnUse" gradientTransform="matrix(1 0 0 1 163.93261612379598 139.66892832865926)"  x1="0" y1="0" x2="0" y2="290">
<stop offset="0%" style="stop-color:rgb(66,230,149);stop-opacity: 1"/>
<stop offset="100%" style="stop-color:rgb(59,178,184);stop-opacity: 1"/>
</linearGradient>
<path style="stroke: none; stroke-width: 1; stroke-dasharray: none; stroke-linecap: butt; stroke-dashoffset: 0; stroke-linejoin: miter; stroke-miterlimit: 4; fill: url(#SVGID_689407); fill-rule: nonzero; opacity: 1;"  paint-order="stroke"  transform=" translate(-248.03493316420648, -284.8034888143296)" d="M 331.9006348 220.4243774 C 331.9006348 220.4243774 318.98950199999996 267.9611206 266.75772099999995 183.45138550000001 C 214.52603149999993 98.94171140000002 165.22293099999996 158.8366699 164.04914859999997 181.13784790000003 C 162.87545779999996 203.43905640000003 169.15803529999997 243.12574770000003 249.15153509999996 298.8625793 C 318.2895508 347.0357055 239.76155099999997 429.9380493 239.76155099999997 429.9380493 C 239.76155099999997 429.9380493 338.35629279999995 404.1156616 303.14385999999996 322.5403442 C 267.9314882 240.9649505 183.45227059999996 228.27632139999997 204.57971209999997 182.5002136 C 225.70715359999997 136.72410580000002 250.16687029999997 233.3005066 301.38320939999994 246.8336792 C 311.55633559999995 248.6978149 319.2869569999999 247.1893921 325.44506849999993 240.9649506 C 333.6372375 232.6845551 332.0881348 221.6150818 331.9006348 220.4243774 z" stroke-linecap="round" />
</g>
		<g transform="matrix(0.5309957200553014 0 0 0.5309957200553014 -21.583324955980686 59.25479792185905)"  >
<linearGradient id="SVGID_3_689408" gradientUnits="userSpaceOnUse" gradientTransform="matrix(1 0 0 1 0 0)"  x1="165.7521057" y1="361.5918579" x2="252.9541016" y2="361.5918579">
<stop offset="0%" style="stop-color:rgb(242,192,41);stop-opacity: 1"/>
<stop offset="100%" style="stop-color:rgb(159,1,96);stop-opacity: 1"/>
</linearGradient>
<path style="stroke: none; stroke-width: 1; stroke-dasharray: none; stroke-linecap: butt; stroke-dashoffset: 0; stroke-linejoin: miter; stroke-miterlimit: 4; fill: url(#SVGID_3_689408); fill-rule: nonzero; opacity: 1;"  paint-order="stroke"  transform=" translate(-209.35310865337897, -361.59185790000004)" d="M 227.7006989 298.8625488 C 227.7006989 298.8625488 314.6962281 345.8259277 165.75210579999998 424.321167 C 165.7521057 424.321167 231.1066284 342.4584351 227.7006989 298.8625488 z" stroke-linecap="round" />
</g>
		<g transform="matrix(0.5309957200553014 0 0 0.5309957200553014 -11.38657040997424 -78.64468989197331)"  >
<linearGradient id="SVGID_4_689409" gradientUnits="userSpaceOnUse" gradientTransform="matrix(1 0 0 1 0 0)"  x1="202.7524109" y1="101.8920441" x2="254.3599854" y2="101.8920441">
<stop offset="0%" style="stop-color:rgb(242,192,41);stop-opacity: 1"/>
<stop offset="100%" style="stop-color:rgb(159,1,96);stop-opacity: 1"/>
</linearGradient>
<path style="stroke: none; stroke-width: 1; stroke-dasharray: none; stroke-linecap: butt; stroke-dashoffset: 0; stroke-linejoin: miter; stroke-miterlimit: 4; fill: url(#SVGID_4_689409); fill-rule: nonzero; opacity: 1;"  paint-order="stroke"  transform=" translate(-228.55619101521893, -101.89204751457797)" d="M 205.31987 105.0209885 C 205.31987 105.0209885 195.7088928 82.4561005 213.67723080000002 73.68087009999999 C 231.64556880000004 64.90563969999998 245.8475952 72.845131 252.95410150000004 89.35092929999999 C 258.39138790000004 101.97975929999998 246.70367430000005 121.58026129999999 240.91313170000004 130.0912629 C 238.95863340000002 132.9640046 235.43132020000004 134.322815 232.06289670000004 133.47050480000001 C 224.6773682 131.6017609 212.1182709 125.416214 205.31987 105.0209885 z" stroke-linecap="round" />
</g>
		<g transform="matrix(0.5309957200553014 0 0 0.5309957200553014 23.71367556983398 -62.59960622967685)"  >
<linearGradient id="SVGID_5_689410" gradientUnits="userSpaceOnUse" gradientTransform="matrix(1 0 0 1 0 0)"  x1="253.2503815" y1="132.109024" x2="336.0673828" y2="132.109024">
<stop offset="0%" style="stop-color:rgb(242,192,41);stop-opacity: 1"/>
<stop offset="100%" style="stop-color:rgb(159,1,96);stop-opacity: 1"/>
</linearGradient>
<path style="stroke: none; stroke-width: 1; stroke-dasharray: none; stroke-linecap: butt; stroke-dashoffset: 0; stroke-linejoin: miter; stroke-miterlimit: 4; fill: url(#SVGID_5_689410); fill-rule: nonzero; opacity: 1;"  paint-order="stroke"  transform=" translate(-294.6588819675164, -132.10902112902704)" d="M 253.2503815 143.352829 C 253.2503815 143.352829 274.6463013 179.0183106 314.2408142 167.59971620000002 C 372.2376709 150.87411500000002 296.3024597 94.36356360000002 296.3024597 94.36356360000002 C 296.3024597 94.36356360000002 323.9114075 134.13397220000002 301.50018309999996 145.7524567 C 300.03051759999994 146.51437380000002 298.44921869999996 147.0153962 296.83560179999995 147.3851166 C 290.2914429 148.8845062 271.0939331 152.0865631 253.2503815 143.352829 z" stroke-linecap="round" />
</g>
</g>
</g>
<g transform="matrix(1.9211538461538462 0 0 1.9211538461538462 639.1774607836136 680.1969859364161)" id="text-logo"  >
<g style=""  paint-order="stroke"   >
		<g transform="matrix(1 0 0 1 0 0)" id="text-logo-path-0"  >
<linearGradient id="SVGID_689411" gradientUnits="userSpaceOnUse" gradientTransform="matrix(1 0 0 1 0.7299999999999898 -31.09)"  x1="-0.7417522964477428" y1="-6.714019999999948" x2="-0.7417522964477428" y2="42.28598000000005">
<stop offset="0%" style="stop-color:rgb(66,230,149);stop-opacity: 1"/>
<stop offset="100%" style="stop-color:rgb(59,178,184);stop-opacity: 1"/>
</linearGradient>
<path style="stroke: none; stroke-width: 0; stroke-dasharray: none; stroke-linecap: butt; stroke-dashoffset: 0; stroke-linejoin: miter; stroke-miterlimit: 4; fill: url(#SVGID_689411); fill-rule: nonzero; opacity: 1;"  paint-order="stroke"  transform=" translate(-161.74499999999998, 15.545)" d="M 8.21 -4.6 L 20.68 -4.6 Q 20.86 -6.06 20.96 -6.73 Q 21.07 -7.4 21.07 -7.57 L 21.07 -7.57 Q 21.29 -8.39 22.06 -8.39 L 22.06 -8.39 L 24.34 -8.39 L 24.34 0 L 0.73 0 L 0.73 -2.28 Q 0.73 -2.71 0.86 -3.1 L 0.86 -3.1 Q 1.03 -3.61 1.25 -3.87 L 1.25 -3.87 L 17.24 -26.49 L 5.42 -26.49 Q 5.25 -24.9 5.14 -24.25 Q 5.03 -23.61 5.03 -23.44 L 5.03 -23.44 Q 4.82 -22.62 4.04 -22.62 L 4.04 -22.62 L 1.76 -22.62 L 1.72 -31.09 L 24.73 -31.09 L 24.73 -28.94 Q 24.73 -27.95 24.17 -27.13 L 24.17 -27.13 L 8.21 -4.6 Z M 76.67 -27.22 L 76.41 -27.18 Q 76.28 -27.18 76.13 -27.13 Q 75.98 -27.09 75.77 -27.05 L 75.77 -27.05 L 74.52 -26.83 L 74.52 -4.26 L 75.77 -4.04 Q 75.98 -4 76.13 -3.96 Q 76.28 -3.91 76.41 -3.91 L 76.41 -3.91 L 76.67 -3.87 Q 77.74 -3.61 77.74 -2.54 L 77.74 -2.54 L 77.74 0 L 65.53 0 L 65.53 -2.54 Q 65.53 -3.61 66.61 -3.87 L 66.61 -3.87 L 69.4 -4.26 L 69.4 -20.08 L 69.45 -21.29 Q 69.45 -21.72 69.53 -22.66 L 69.53 -22.66 L 60.16 -5.03 Q 59.81 -4.39 59.3 -4.08 L 59.3 -4.08 Q 58.74 -3.74 58.09 -3.74 L 58.09 -3.74 L 57.32 -3.74 Q 56.67 -3.74 56.12 -4.08 L 56.12 -4.08 Q 55.6 -4.39 55.26 -5.03 L 55.26 -5.03 L 45.75 -22.7 L 45.84 -21.33 Q 45.88 -20.9 45.88 -20.08 L 45.88 -20.08 L 45.88 -4.26 L 48.68 -3.87 Q 49.75 -3.61 49.75 -2.54 L 49.75 -2.54 L 49.75 0 L 37.54 0 L 37.54 -2.54 Q 37.54 -3.61 38.61 -3.87 L 38.61 -3.87 L 38.87 -3.91 L 39.52 -4.04 L 40.81 -4.26 L 40.81 -26.83 L 39.52 -27.05 Q 39.3 -27.09 39.15 -27.13 Q 39 -27.18 38.87 -27.18 L 38.87 -27.18 L 38.61 -27.22 Q 37.54 -27.48 37.54 -28.55 L 37.54 -28.55 L 37.54 -31.09 L 45.15 -31.09 L 45.84 -31.05 Q 46.1 -31.05 46.35 -30.96 L 46.35 -30.96 Q 46.48 -30.92 46.74 -30.66 L 46.74 -30.66 Q 46.91 -30.49 47.13 -30.14 L 47.13 -30.14 L 56.42 -12.9 Q 56.67 -12.43 56.82 -12.06 Q 56.98 -11.7 57.06 -11.48 L 57.06 -11.48 L 57.71 -9.98 L 58.31 -11.48 Q 58.65 -12.34 59 -12.94 L 59 -12.94 L 68.2 -30.14 Q 68.46 -30.57 68.54 -30.66 L 68.54 -30.66 Q 68.8 -30.92 68.97 -30.96 L 68.97 -30.96 Q 69.32 -31.05 69.49 -31.05 L 69.49 -31.05 L 70.13 -31.09 L 77.74 -31.09 L 77.74 -28.55 Q 77.74 -27.48 76.67 -27.22 L 76.67 -27.22 Z M 120.7 -4.3 L 123.07 -3.31 Q 123.88 -3.01 123.88 -2.19 L 123.88 -2.19 L 123.88 0 L 113.39 0 L 113.39 -2.19 Q 113.39 -2.92 114.25 -3.31 L 114.25 -3.31 L 115.11 -3.66 L 113.39 -8.34 L 101.01 -8.34 L 99.29 -3.66 L 100.15 -3.31 Q 101.01 -2.92 101.01 -2.19 L 101.01 -2.19 L 101.01 0 L 90.52 0 L 90.52 -2.19 Q 90.52 -2.92 91.38 -3.31 L 91.38 -3.31 L 93.74 -4.3 L 104.23 -31.09 L 110.17 -31.09 L 120.7 -4.3 Z M 102.51 -12.43 L 111.93 -12.43 L 108.36 -22.1 Q 107.84 -23.52 107.2 -25.76 L 107.2 -25.76 L 106.81 -24.42 Q 106.47 -23.26 106.04 -22.06 L 106.04 -22.06 L 102.51 -12.43 Z M 164.22 -4.26 L 167.49 -3.87 Q 168.56 -3.61 168.56 -2.54 L 168.56 -2.54 L 168.56 0 L 155.36 0 L 155.36 -2.54 Q 155.36 -3.61 156.43 -3.87 L 156.43 -3.87 L 157.72 -4.13 L 152.44 -12.9 Q 152.39 -12.64 152.22 -12.43 L 152.22 -12.43 L 152.01 -12 L 147.15 -4.26 L 148.95 -3.87 Q 150.03 -3.61 150.03 -2.54 L 150.03 -2.54 L 150.03 0 L 136.65 0 L 136.65 -2.54 Q 136.65 -3.61 137.77 -3.87 L 137.77 -3.87 L 141 -4.26 L 148.61 -16 L 141.47 -26.83 L 138.16 -27.22 Q 137.08 -27.48 137.08 -28.55 L 137.08 -28.55 L 137.08 -31.09 L 150.46 -31.09 L 150.46 -28.55 Q 150.46 -27.48 149.38 -27.22 L 149.38 -27.22 L 147.96 -26.92 L 152.87 -18.96 L 153.12 -19.52 Q 153.34 -20 153.42 -20.08 L 153.42 -20.08 L 157.72 -26.88 L 156.09 -27.22 Q 155.02 -27.48 155.02 -28.55 L 155.02 -28.55 L 155.02 -31.09 L 168.13 -31.09 L 168.13 -28.55 Q 168.13 -27.48 167.06 -27.22 L 167.06 -27.22 L 163.79 -26.83 L 156.65 -16.25 L 164.22 -4.26 Z M 225.06 -7.44 L 225.06 0 L 202.53 0 L 202.53 -2.54 Q 202.53 -3.61 203.61 -3.87 L 203.61 -3.87 L 203.86 -3.91 L 204.51 -4.04 L 205.8 -4.26 L 205.8 -26.83 L 204.51 -27.05 Q 204.29 -27.09 204.14 -27.13 Q 203.99 -27.18 203.86 -27.18 L 203.86 -27.18 L 203.61 -27.22 Q 202.53 -27.48 202.53 -28.55 L 202.53 -28.55 L 202.53 -31.09 L 214.83 -31.09 L 214.83 -28.55 Q 214.83 -27.48 213.75 -27.22 L 213.75 -27.22 L 213.5 -27.18 L 212.85 -27.05 L 211.56 -26.83 L 211.56 -4.77 L 221.58 -4.77 Q 221.71 -6.49 221.75 -6.62 L 221.75 -6.62 Q 221.97 -7.44 222.74 -7.44 L 222.74 -7.44 L 225.06 -7.44 Z M 249.23 -27.22 L 248.97 -27.18 Q 248.84 -27.18 248.69 -27.13 Q 248.54 -27.09 248.33 -27.05 L 248.33 -27.05 L 247.08 -26.83 L 247.08 -4.26 L 248.33 -4.04 Q 248.54 -4 248.69 -3.96 Q 248.84 -3.91 248.97 -3.91 L 248.97 -3.91 L 249.23 -3.87 Q 250.3 -3.61 250.3 -2.54 L 250.3 -2.54 L 250.3 0 L 238.01 0 L 238.01 -2.54 Q 238.01 -3.61 239.08 -3.87 L 239.08 -3.87 L 239.34 -3.91 L 239.98 -4.04 L 241.27 -4.26 L 241.27 -26.83 L 239.98 -27.05 Q 239.77 -27.09 239.62 -27.13 Q 239.47 -27.18 239.34 -27.18 L 239.34 -27.18 L 239.08 -27.22 Q 238.01 -27.48 238.01 -28.55 L 238.01 -28.55 L 238.01 -31.09 L 250.3 -31.09 L 250.3 -28.55 Q 250.3 -27.48 249.23 -27.22 L 249.23 -27.22 Z M 287.15 -31.09 L 287.15 -22.92 L 284.66 -22.92 Q 283.89 -22.92 283.67 -23.74 L 283.67 -23.74 Q 283.46 -25.41 283.37 -26.49 L 283.37 -26.49 L 272.28 -26.49 L 272.28 -17.29 L 283.16 -17.29 L 283.16 -12.69 L 272.28 -12.69 L 272.28 -4.26 L 273.57 -4.04 Q 273.78 -4 273.93 -3.96 Q 274.08 -3.91 274.21 -3.91 L 274.21 -3.91 L 274.47 -3.87 Q 275.54 -3.61 275.54 -2.54 L 275.54 -2.54 L 275.54 0 L 263.2 0 L 263.2 -2.54 Q 263.2 -3.61 264.28 -3.87 L 264.28 -3.87 L 264.54 -3.91 Q 264.67 -3.91 264.82 -3.96 Q 264.97 -4 265.18 -4.04 L 265.18 -4.04 L 266.47 -4.26 L 266.47 -26.83 L 265.18 -27.05 Q 264.97 -27.09 264.82 -27.13 Q 264.67 -27.18 264.54 -27.18 L 264.54 -27.18 L 264.28 -27.22 Q 263.2 -27.48 263.2 -28.55 L 263.2 -28.55 L 263.2 -31.09 L 287.15 -31.09 Z M 322.76 -31.09 L 322.76 -22.92 L 320.26 -22.92 Q 319.49 -22.92 319.28 -23.74 L 319.28 -23.74 Q 319.06 -25.41 318.97 -26.49 L 318.97 -26.49 L 308.96 -26.49 L 308.96 -17.89 L 319.49 -17.89 L 319.49 -13.42 L 308.96 -13.42 L 308.96 -4.64 L 318.97 -4.64 Q 319.06 -5.72 319.28 -7.4 L 319.28 -7.4 Q 319.49 -8.21 320.26 -8.21 L 320.26 -8.21 L 322.76 -8.21 L 322.76 0 L 299.88 0 L 299.88 -2.54 Q 299.88 -3.61 300.96 -3.87 L 300.96 -3.87 L 301.22 -3.91 Q 301.34 -3.91 301.49 -3.96 Q 301.65 -4 301.86 -4.04 L 301.86 -4.04 L 303.15 -4.26 L 303.15 -26.83 L 301.86 -27.05 Q 301.65 -27.09 301.49 -27.13 Q 301.34 -27.18 301.22 -27.18 L 301.22 -27.18 L 300.96 -27.22 Q 299.88 -27.48 299.88 -28.55 L 299.88 -28.55 L 299.88 -31.09 L 322.76 -31.09 Z" stroke-linecap="round" />
</g>
</g>
</g>
<g transform="matrix(1.9211538461538462 0 0 1.9211538461538462 639.598711286919 747.8149497761098)" id="tagline-7382cf7b-4db1-4906-a04e-204dc12fadaa-logo"  >
<g style=""  paint-order="stroke"   >
		<g transform="matrix(1 0 0 1 0 0)" id="tagline-7382cf7b-4db1-4906-a04e-204dc12fadaa-logo-path-0"  >
<linearGradient id="SVGID_689412" gradientUnits="userSpaceOnUse" gradientTransform="matrix(1 0 0 1 0.5800000000000125 -12.33)"  x1="-0.5583105468750773" y1="-2.61871984375" x2="-0.5583105468750773" y2="16.38128015625">
<stop offset="0%" style="stop-color:rgb(250,217,97);stop-opacity: 1"/>
<stop offset="100%" style="stop-color:rgb(247,107,28);stop-opacity: 1"/>
</linearGradient>
<path style="stroke: none; stroke-width: 0; stroke-dasharray: none; stroke-linecap: butt; stroke-dashoffset: 0; stroke-linejoin: miter; stroke-miterlimit: 4; fill: url(#SVGID_689412); fill-rule: nonzero; opacity: 1;"  paint-order="stroke"  transform=" translate(-135.44000000000003, 6.08)" d="M 9.31 0 L 0.58 0 L 0.58 -0.71 Q 0.58 -0.99 0.83 -1.04 L 0.83 -1.04 L 1.8 -1.22 L 1.8 -10.93 Q 0.98 -11.08 0.83 -11.13 L 0.83 -11.13 Q 0.58 -11.18 0.58 -11.46 L 0.58 -11.46 L 0.58 -12.17 L 9.31 -12.17 L 9.31 -9.23 L 8.5 -9.23 Q 8.19 -9.23 8.14 -9.52 L 8.14 -9.52 Q 8.14 -9.54 8.13 -9.69 Q 8.12 -9.84 8.08 -10.16 Q 8.05 -10.48 8.03 -10.83 L 8.03 -10.83 L 3.47 -10.83 L 3.47 -6.78 L 7.95 -6.78 L 7.95 -5.5 L 3.47 -5.5 L 3.47 -1.33 L 8.03 -1.33 Q 8.13 -2.45 8.13 -2.55 L 8.13 -2.55 Q 8.17 -2.82 8.5 -2.82 L 8.5 -2.82 L 9.31 -2.82 L 9.31 0 Z M 20.47 0 L 16.41 0 L 16.41 -0.75 Q 16.41 -1 16.67 -1.05 L 16.67 -1.05 L 17.63 -1.26 L 17.63 -10.95 Q 16.84 -11.09 16.67 -11.15 L 16.67 -11.15 Q 16.41 -11.2 16.41 -11.46 L 16.41 -11.46 L 16.41 -12.2 L 18.86 -12.2 Q 19.1 -12.2 19.2 -12.15 L 19.2 -12.15 Q 19.34 -12.08 19.41 -11.94 L 19.41 -11.94 L 23.61 -4.42 Q 23.79 -4.13 24 -3.54 L 24 -3.54 Q 24.12 -3.88 24.39 -4.44 L 24.39 -4.44 L 28.51 -11.94 Q 28.58 -12.07 28.74 -12.15 L 28.74 -12.15 Q 28.84 -12.2 29.08 -12.2 L 29.08 -12.2 L 31.53 -12.2 L 31.53 -11.46 Q 31.53 -11.2 31.26 -11.15 L 31.26 -11.15 L 30.29 -10.95 L 30.29 -1.26 Q 31.06 -1.12 31.26 -1.05 L 31.26 -1.05 Q 31.53 -1 31.53 -0.75 L 31.53 -0.75 L 31.53 0 L 27.45 0 L 27.45 -0.75 Q 27.45 -1 27.71 -1.05 L 27.71 -1.05 Q 28.25 -1.16 28.85 -1.26 L 28.85 -1.26 L 28.85 -8.96 Q 28.85 -9.49 28.88 -9.76 L 28.88 -9.76 L 24.7 -2.14 Q 24.5 -1.75 24.12 -1.75 L 24.12 -1.75 L 23.89 -1.75 Q 23.47 -1.75 23.27 -2.14 L 23.27 -2.14 L 19.02 -9.78 L 19.04 -9.79 Q 19.09 -9.34 19.09 -8.97 L 19.09 -8.97 L 19.09 -1.26 Q 19.9 -1.13 20.24 -1.05 L 20.24 -1.05 Q 20.47 -1 20.47 -0.75 L 20.47 -0.75 L 20.47 0 Z M 43.97 0 L 38.45 0 L 38.45 -0.75 Q 38.45 -1 38.7 -1.05 L 38.7 -1.05 L 39.67 -1.26 L 39.67 -10.95 Q 38.85 -11.1 38.7 -11.15 L 38.7 -11.15 Q 38.45 -11.2 38.45 -11.46 L 38.45 -11.46 L 38.45 -12.2 L 43.56 -12.2 Q 46.81 -12.2 47.61 -10.35 L 47.61 -10.35 Q 47.85 -9.76 47.85 -9.15 L 47.85 -9.15 Q 47.85 -8.49 47.71 -8.13 L 47.71 -8.13 Q 47.55 -7.66 47.31 -7.36 L 47.31 -7.36 Q 46.72 -6.62 45.57 -6.26 L 45.57 -6.26 Q 48.25 -5.73 48.25 -3.47 L 48.25 -3.47 Q 48.25 -1.89 47.13 -0.97 L 47.13 -0.97 Q 45.99 0 43.97 0 L 43.97 0 Z M 41.32 -5.54 L 41.32 -1.31 L 43.97 -1.31 L 43.95 -1.29 Q 45.97 -1.29 46.48 -2.61 L 46.48 -2.61 Q 46.63 -3 46.63 -3.5 L 46.63 -3.5 Q 46.63 -4.45 45.98 -5 Q 45.33 -5.54 43.95 -5.54 L 43.95 -5.54 L 41.32 -5.54 Z M 41.32 -10.88 L 41.32 -6.73 L 43.5 -6.73 Q 45.54 -6.73 46.04 -7.95 L 46.04 -7.95 Q 46.22 -8.43 46.22 -8.81 L 46.22 -8.81 Q 46.22 -9.87 45.57 -10.37 L 45.57 -10.37 Q 44.91 -10.88 43.56 -10.88 L 43.56 -10.88 L 41.32 -10.88 Z M 56.23 -0.02 L 55.01 -0.02 L 55.01 -0.75 Q 55.01 -1 55.25 -1.05 L 55.25 -1.05 L 56.24 -1.26 L 56.24 -10.95 Q 55.4 -11.11 55.25 -11.15 L 55.25 -11.15 Q 55.01 -11.21 55.01 -11.46 L 55.01 -11.46 L 55.01 -12.2 L 56.23 -12.2 L 59.5 -12.2 Q 60.63 -12.2 61.51 -11.97 L 61.51 -11.97 Q 62.35 -11.75 62.91 -11.29 L 62.91 -11.29 Q 63.47 -10.82 63.72 -10.22 L 63.72 -10.22 Q 63.98 -9.59 63.98 -8.81 L 63.98 -8.81 Q 63.98 -8.2 63.77 -7.62 L 63.77 -7.62 Q 63.57 -7.07 63.18 -6.6 Q 62.79 -6.13 62.24 -5.83 L 62.24 -5.83 Q 61.6 -5.47 60.98 -5.34 L 60.98 -5.34 Q 61.31 -5.15 61.53 -4.83 L 61.53 -4.83 L 64.16 -1.22 Q 65.03 -1.08 65.12 -1.05 L 65.12 -1.05 L 65.1 -1.05 Q 65.36 -1 65.36 -0.75 L 65.36 -0.75 L 65.36 0 L 65.05 0 L 64.13 0 L 63.59 0 Q 63.14 0 62.94 -0.36 L 62.94 -0.36 L 59.78 -4.71 Q 59.65 -4.88 59.47 -5 L 59.47 -5 Q 59.32 -5.1 58.96 -5.1 L 58.96 -5.1 L 57.88 -5.1 L 57.88 -1.26 Q 58.69 -1.09 58.82 -1.05 L 58.82 -1.05 Q 58.94 -1.03 59.02 -0.94 Q 59.1 -0.85 59.1 -0.75 L 59.1 -0.75 L 59.1 -0.02 L 57.88 -0.02 L 56.23 -0.02 Z M 57.86 -10.88 L 57.86 -6.29 L 59.42 -6.29 L 59.4 -6.29 Q 60.15 -6.29 60.68 -6.46 L 60.68 -6.46 Q 61.18 -6.62 61.6 -6.97 L 61.6 -6.97 Q 61.98 -7.3 62.16 -7.72 L 62.16 -7.72 Q 62.34 -8.14 62.34 -8.71 L 62.34 -8.71 Q 62.34 -9.77 61.63 -10.33 L 61.63 -10.33 Q 60.93 -10.88 59.5 -10.88 L 59.5 -10.88 L 57.86 -10.88 Z M 75.57 0 L 72.08 0 L 72.08 -0.68 Q 72.08 -0.9 72.31 -0.95 L 72.31 -0.95 L 72.99 -1.15 L 77.41 -12.17 L 79.07 -12.17 L 83.47 -1.15 L 84.15 -0.95 Q 84.38 -0.9 84.38 -0.68 L 84.38 -0.68 L 84.38 0 L 80.87 0 L 80.87 -0.68 Q 80.87 -0.9 81.12 -0.95 L 81.12 -0.95 L 81.81 -1.15 L 80.86 -3.6 L 75.6 -3.6 L 74.65 -1.15 L 75.35 -0.95 Q 75.57 -0.9 75.57 -0.68 L 75.57 -0.68 L 75.57 0 Z M 77.89 -9.47 L 76.06 -4.8 L 80.4 -4.8 L 78.6 -9.49 Q 78.39 -9.96 78.23 -10.63 L 78.23 -10.63 Q 78.02 -9.84 77.89 -9.47 L 77.89 -9.47 Z M 91.01 -6.08 L 91.01 -6.08 Q 91.01 -8.82 92.71 -10.58 L 92.71 -10.58 Q 94.39 -12.31 97.23 -12.31 L 97.23 -12.31 L 97.2 -12.33 Q 98.65 -12.33 100.97 -11.46 L 100.97 -11.46 L 100.97 -10.51 L 100.97 -8.6 L 100.15 -8.6 Q 99.83 -8.6 99.78 -8.91 L 99.78 -8.91 Q 99.76 -8.96 99.71 -9.67 L 99.71 -9.67 Q 99.7 -9.86 99.68 -10.04 Q 99.66 -10.22 99.65 -10.31 Q 99.64 -10.41 99.64 -10.43 L 99.64 -10.43 Q 98.23 -10.88 97.07 -10.88 L 97.07 -10.88 Q 95.13 -10.88 93.91 -9.6 L 93.91 -9.6 Q 92.67 -8.27 92.67 -6.08 L 92.67 -6.08 Q 92.67 -3.87 93.89 -2.55 L 93.89 -2.55 Q 95.05 -1.29 96.91 -1.29 L 96.91 -1.29 Q 97.95 -1.29 98.52 -1.49 L 98.52 -1.49 Q 99.42 -1.83 100.01 -2.38 L 100.01 -2.38 Q 100.17 -2.52 100.29 -2.52 L 100.29 -2.52 Q 100.46 -2.52 100.56 -2.42 L 100.56 -2.42 L 101.21 -1.7 Q 99.62 0.13 96.82 0.13 L 96.82 0.13 Q 94.19 0.13 92.61 -1.6 L 92.61 -1.6 Q 91.01 -3.35 91.01 -6.08 Z M 116.59 0 L 107.85 0 L 107.85 -0.71 Q 107.85 -0.99 108.1 -1.04 L 108.1 -1.04 L 109.07 -1.22 L 109.07 -10.93 Q 108.25 -11.08 108.1 -11.13 L 108.1 -11.13 Q 107.85 -11.18 107.85 -11.46 L 107.85 -11.46 L 107.85 -12.17 L 116.59 -12.17 L 116.59 -9.23 L 115.77 -9.23 Q 115.46 -9.23 115.41 -9.52 L 115.41 -9.52 Q 115.41 -9.54 115.4 -9.69 Q 115.39 -9.84 115.36 -10.16 Q 115.32 -10.48 115.3 -10.83 L 115.3 -10.83 L 110.74 -10.83 L 110.74 -6.78 L 115.22 -6.78 L 115.22 -5.5 L 110.74 -5.5 L 110.74 -1.33 L 115.3 -1.33 Q 115.4 -2.45 115.4 -2.55 L 115.4 -2.55 Q 115.44 -2.82 115.77 -2.82 L 115.77 -2.82 L 116.59 -2.82 L 116.59 0 Z M 132.94 -11.44 L 132.94 -11.44 L 132.94 -12.17 L 137.01 -12.17 L 137.01 -11.44 Q 137.01 -11.16 136.76 -11.11 L 136.76 -11.11 Q 135.85 -10.93 135.79 -10.93 L 135.79 -10.93 L 138.07 -7.06 Q 138.44 -6.36 138.57 -5.98 L 138.57 -5.98 Q 138.76 -6.55 139.06 -7.07 L 139.06 -7.07 L 141.34 -10.95 Q 141.26 -10.95 140.35 -11.13 L 140.35 -11.13 Q 140.11 -11.18 140.11 -11.46 L 140.11 -11.46 L 140.11 -12.17 L 144.19 -12.17 L 144.19 -11.42 Q 144.19 -11.16 143.99 -11.11 L 143.99 -11.11 Q 143.93 -11.1 143.81 -11.07 Q 143.7 -11.05 143.48 -11 Q 143.27 -10.95 143.11 -10.92 L 143.11 -10.92 L 139.38 -4.83 L 139.38 -1.22 Q 139.79 -1.11 140.35 -1.02 L 140.35 -1.02 Q 140.61 -0.97 140.61 -0.71 L 140.61 -0.71 L 140.61 0.02 L 139.38 0.02 L 137.73 0.02 L 136.51 0.02 L 136.51 -0.71 Q 136.51 -0.96 136.78 -1.02 L 136.78 -1.02 L 137.73 -1.22 L 137.73 -4.83 L 134.03 -10.92 Q 133.36 -11.08 133.18 -11.11 L 133.18 -11.11 Q 132.94 -11.16 132.94 -11.44 Z M 151.17 -3.55 Q 150.73 -4.71 150.73 -6.07 Q 150.73 -7.43 151.17 -8.58 L 151.17 -8.58 Q 151.6 -9.73 152.4 -10.56 Q 153.2 -11.39 154.3 -11.85 L 154.3 -11.85 Q 155.43 -12.31 156.75 -12.31 Q 158.07 -12.31 159.2 -11.85 L 159.2 -11.85 Q 160.33 -11.38 161.1 -10.58 L 161.1 -10.58 Q 161.9 -9.75 162.33 -8.6 L 162.33 -8.6 Q 162.75 -7.49 162.75 -6.08 L 162.75 -6.08 L 162.73 -6.05 Q 162.73 -4.67 162.31 -3.55 L 162.31 -3.55 Q 161.88 -2.41 161.08 -1.58 L 161.08 -1.58 Q 160.3 -0.76 159.2 -0.31 L 159.2 -0.31 Q 158.04 0.17 156.75 0.17 Q 155.45 0.17 154.3 -0.31 L 154.3 -0.31 Q 153.16 -0.77 152.4 -1.58 L 152.4 -1.58 Q 151.6 -2.41 151.17 -3.55 L 151.17 -3.55 Z M 152.4 -6.05 L 152.4 -6.05 Q 152.4 -4.93 152.71 -4.04 L 152.71 -4.04 Q 153.01 -3.18 153.59 -2.55 L 153.59 -2.55 Q 154.16 -1.93 154.95 -1.6 L 154.95 -1.6 Q 155.78 -1.26 156.73 -1.26 Q 157.69 -1.26 158.52 -1.6 L 158.52 -1.6 Q 159.31 -1.93 159.88 -2.55 L 159.88 -2.55 Q 160.43 -3.15 160.74 -4.04 Q 161.05 -4.93 161.05 -6.05 L 161.05 -6.05 L 161.03 -6.05 Q 161.03 -7.19 160.72 -8.08 L 160.72 -8.08 Q 160.39 -9.02 159.88 -9.59 L 159.88 -9.59 Q 159.31 -10.2 158.52 -10.53 L 158.52 -10.53 Q 157.73 -10.85 156.72 -10.85 L 156.72 -10.85 Q 155.74 -10.85 154.95 -10.53 L 154.95 -10.53 Q 154.15 -10.2 153.59 -9.59 L 153.59 -9.59 Q 153.01 -8.96 152.71 -8.08 Q 152.4 -7.19 152.4 -6.05 Z M 169.31 -11.46 L 169.31 -11.46 L 169.31 -12.17 L 173.58 -12.17 L 173.58 -11.46 Q 173.58 -11.19 173.3 -11.13 L 173.3 -11.13 Q 172.96 -11.06 172.18 -10.95 L 172.18 -10.95 L 172.18 -4.8 Q 172.18 -3.2 173.03 -2.27 L 173.03 -2.27 Q 173.89 -1.31 175.4 -1.31 Q 176.9 -1.31 177.76 -2.27 L 177.76 -2.27 Q 178.61 -3.22 178.61 -4.77 L 178.61 -4.77 L 178.61 -10.95 Q 177.78 -11.07 177.49 -11.13 L 177.49 -11.13 Q 177.21 -11.19 177.21 -11.46 L 177.21 -11.46 L 177.21 -12.17 L 178.61 -12.17 L 180.24 -12.17 L 181.46 -12.17 L 181.46 -11.44 Q 181.46 -11.17 181.19 -11.11 L 181.19 -11.11 L 180.23 -10.93 L 180.23 -4.76 Q 180.23 -2.67 178.93 -1.26 L 178.93 -1.26 Q 177.61 0.15 175.38 0.15 L 175.38 0.15 Q 173.16 0.15 171.84 -1.26 L 171.84 -1.26 Q 170.53 -2.66 170.53 -4.76 L 170.53 -4.76 L 170.53 -10.93 Q 169.73 -11.08 169.57 -11.13 L 169.57 -11.13 Q 169.31 -11.18 169.31 -11.46 Z M 189.38 -0.02 L 188.16 -0.02 L 188.16 -0.75 Q 188.16 -1 188.41 -1.05 L 188.41 -1.05 L 189.4 -1.26 L 189.4 -10.95 Q 188.56 -11.11 188.41 -11.15 L 188.41 -11.15 Q 188.16 -11.21 188.16 -11.46 L 188.16 -11.46 L 188.16 -12.2 L 189.38 -12.2 L 192.66 -12.2 Q 193.79 -12.2 194.67 -11.97 L 194.67 -11.97 Q 195.51 -11.75 196.06 -11.29 L 196.06 -11.29 Q 196.63 -10.82 196.87 -10.22 L 196.87 -10.22 Q 197.13 -9.59 197.13 -8.81 L 197.13 -8.81 Q 197.13 -8.2 196.92 -7.62 L 196.92 -7.62 Q 196.73 -7.07 196.34 -6.6 Q 195.95 -6.13 195.4 -5.83 L 195.4 -5.83 Q 194.75 -5.47 194.14 -5.34 L 194.14 -5.34 Q 194.46 -5.15 194.68 -4.83 L 194.68 -4.83 L 197.31 -1.22 Q 198.19 -1.08 198.27 -1.05 L 198.27 -1.05 L 198.25 -1.05 Q 198.51 -1 198.51 -0.75 L 198.51 -0.75 L 198.51 0 L 198.2 0 L 197.28 0 L 196.74 0 Q 196.29 0 196.09 -0.36 L 196.09 -0.36 L 192.93 -4.71 Q 192.8 -4.88 192.62 -5 L 192.62 -5 Q 192.48 -5.1 192.12 -5.1 L 192.12 -5.1 L 191.03 -5.1 L 191.03 -1.26 Q 191.84 -1.09 191.98 -1.05 L 191.98 -1.05 Q 192.09 -1.03 192.17 -0.94 Q 192.25 -0.85 192.25 -0.75 L 192.25 -0.75 L 192.25 -0.02 L 191.03 -0.02 L 189.38 -0.02 Z M 191.01 -10.88 L 191.01 -6.29 L 192.58 -6.29 L 192.56 -6.29 Q 193.31 -6.29 193.84 -6.46 L 193.84 -6.46 Q 194.33 -6.62 194.75 -6.97 L 194.75 -6.97 Q 195.13 -7.3 195.31 -7.72 L 195.31 -7.72 Q 195.5 -8.14 195.5 -8.71 L 195.5 -8.71 Q 195.5 -9.77 194.78 -10.33 L 194.78 -10.33 Q 194.09 -10.88 192.66 -10.88 L 192.66 -10.88 L 191.01 -10.88 Z M 218.94 0.02 L 214.9 0.02 L 214.9 -0.71 Q 214.9 -0.97 215.15 -1.02 L 215.15 -1.02 L 216.12 -1.22 L 216.12 -10.92 Q 215.29 -11.06 215.15 -11.11 L 215.15 -11.11 Q 214.9 -11.16 214.9 -11.44 L 214.9 -11.44 L 214.9 -12.17 L 216.96 -12.17 Q 217.19 -12.17 217.29 -12.12 L 217.29 -12.12 Q 217.37 -12.08 217.54 -11.9 L 217.54 -11.9 L 224.58 -2.72 L 224.58 -2.69 Q 224.55 -2.93 224.55 -3.54 L 224.55 -3.54 L 224.55 -10.92 Q 224.26 -10.96 224.01 -11 Q 223.75 -11.05 223.6 -11.08 Q 223.45 -11.11 223.43 -11.11 L 223.43 -11.11 Q 223.16 -11.17 223.16 -11.42 L 223.16 -11.42 L 223.16 -12.17 L 224.55 -12.17 L 225.99 -12.17 L 227.23 -12.17 L 227.23 -11.42 Q 227.23 -11.16 226.97 -11.11 L 226.97 -11.11 L 225.99 -10.92 L 225.99 0.02 L 225.16 0.02 Q 224.82 0.02 224.58 -0.27 L 224.58 -0.27 L 217.53 -9.45 Q 217.56 -9.16 217.56 -8.67 L 217.56 -8.67 L 217.56 -1.22 Q 218.08 -1.15 218.7 -1.02 L 218.7 -1.02 Q 218.94 -0.97 218.94 -0.71 L 218.94 -0.71 L 218.94 0.02 Z M 234.17 -3.55 Q 233.73 -4.71 233.73 -6.07 Q 233.73 -7.43 234.17 -8.58 L 234.17 -8.58 Q 234.6 -9.73 235.39 -10.56 Q 236.19 -11.39 237.3 -11.85 L 237.3 -11.85 Q 238.42 -12.31 239.74 -12.31 Q 241.06 -12.31 242.19 -11.85 L 242.19 -11.85 Q 243.33 -11.38 244.09 -10.58 L 244.09 -10.58 Q 244.89 -9.75 245.32 -8.6 L 245.32 -8.6 Q 245.75 -7.49 245.75 -6.08 L 245.75 -6.08 L 245.73 -6.05 Q 245.73 -4.67 245.31 -3.55 L 245.31 -3.55 Q 244.87 -2.41 244.08 -1.58 L 244.08 -1.58 Q 243.3 -0.76 242.19 -0.31 L 242.19 -0.31 Q 241.04 0.17 239.74 0.17 Q 238.45 0.17 237.3 -0.31 L 237.3 -0.31 Q 236.16 -0.77 235.39 -1.58 L 235.39 -1.58 Q 234.6 -2.41 234.17 -3.55 L 234.17 -3.55 Z M 235.39 -6.05 L 235.39 -6.05 Q 235.39 -4.93 235.7 -4.04 L 235.7 -4.04 Q 236 -3.18 236.58 -2.55 L 236.58 -2.55 Q 237.15 -1.93 237.94 -1.6 L 237.94 -1.6 Q 238.77 -1.26 239.73 -1.26 Q 240.68 -1.26 241.51 -1.6 L 241.51 -1.6 Q 242.3 -1.93 242.87 -2.55 L 242.87 -2.55 Q 243.43 -3.15 243.74 -4.04 Q 244.04 -4.93 244.04 -6.05 L 244.04 -6.05 L 244.03 -6.05 Q 244.03 -7.19 243.72 -8.08 L 243.72 -8.08 Q 243.39 -9.02 242.87 -9.59 L 242.87 -9.59 Q 242.31 -10.2 241.51 -10.53 L 241.51 -10.53 Q 240.72 -10.85 239.71 -10.85 L 239.71 -10.85 Q 238.73 -10.85 237.94 -10.53 L 237.94 -10.53 Q 237.15 -10.2 236.58 -9.59 L 236.58 -9.59 Q 236.01 -8.96 235.7 -8.08 Q 235.39 -7.19 235.39 -6.05 Z M 251.78 -11.46 L 251.78 -11.46 L 251.78 -12.19 L 255.93 -12.19 L 255.93 -11.46 Q 255.93 -11.21 255.65 -11.15 L 255.65 -11.15 Q 255.41 -11.1 255.18 -11.05 Q 254.94 -11 254.83 -10.97 Q 254.72 -10.95 254.7 -10.95 L 254.7 -10.95 L 256.94 -3.33 Q 257.14 -2.56 257.18 -2.27 L 257.18 -2.27 Q 257.3 -2.92 257.44 -3.33 L 257.44 -3.33 L 260.31 -11.8 Q 260.36 -11.94 260.52 -12.07 Q 260.68 -12.2 260.87 -12.2 L 260.87 -12.2 L 261.35 -12.2 Q 261.75 -12.2 261.9 -11.8 L 261.9 -11.8 L 264.77 -3.33 Q 264.96 -2.75 265.03 -2.32 L 265.03 -2.32 Q 265.05 -2.4 265.08 -2.59 Q 265.11 -2.77 265.12 -2.86 L 265.12 -2.86 Q 265.2 -3.23 265.22 -3.33 L 265.22 -3.33 L 267.48 -10.95 Q 267.45 -10.95 266.54 -11.13 L 266.54 -11.13 Q 266.26 -11.19 266.26 -11.46 L 266.26 -11.46 L 266.26 -12.17 L 269.59 -12.17 L 270.3 -12.17 L 270.3 -11.44 Q 270.3 -11.17 270.03 -11.11 L 270.03 -11.11 L 269.18 -10.93 L 265.78 0 L 264.29 0 L 261.21 -9.28 Q 261.12 -9.52 261.04 -9.89 L 261.04 -9.89 Q 261.02 -9.84 261 -9.74 Q 260.97 -9.64 260.96 -9.59 Q 260.94 -9.54 260.92 -9.43 Q 260.91 -9.32 260.89 -9.28 L 260.89 -9.28 L 257.79 0 L 256.3 0 L 252.9 -10.95 Q 252.22 -11.09 252.05 -11.15 L 252.05 -11.15 Q 251.78 -11.21 251.78 -11.46 Z" stroke-linecap="round" />
</g>
</g>
</g>
</svg>