<?xml version="1.0"?><svg data-name="Layer 1" id="Layer_1" viewBox="0 0 512 512" xmlns="http://www.w3.org/2000/svg" xmlns:xlink="http://www.w3.org/1999/xlink"><defs><style>.cls-1{fill:url(#linear-gradient);}</style><linearGradient gradientUnits="userSpaceOnUse" id="linear-gradient" x1="0.952" x2="497.137" y1="511.048" y2="14.862"><stop offset="0" stop-color="#0079ff"/><stop offset="1" stop-color="#00c2ff"/></linearGradient></defs><title/><path class="cls-1" d="M256,0C114.615,0,0,114.615,0,256S114.615,512,256,512,512,397.385,512,256,397.385,0,256,0Zm65.382,328.892a9.268,9.268,0,0,1-9.267,9.268H155.145a45.812,45.812,0,0,1-45.812-45.812V183.108a9.268,9.268,0,0,1,9.268-9.268h156.97a45.811,45.811,0,0,1,45.811,45.811Zm81.285,3.235a4.219,4.219,0,0,1-6.659,3.442l-66.656-47.233V223.663l66.656-47.233a4.22,4.22,0,0,1,6.659,3.443Z"/></svg>